<?xml version="1.0" standalone="no"?>
<!DOCTYPE svg PUBLIC "-//W3C//DTD SVG 20010904//EN"
 "http://www.w3.org/TR/2001/REC-SVG-20010904/DTD/svg10.dtd">
<svg version="1.0" xmlns="http://www.w3.org/2000/svg"
 width="278.000000pt" height="181.000000pt" viewBox="0 0 278.000000 181.000000"
 preserveAspectRatio="xMidYMid meet">

<g transform="translate(0.000000,181.000000) scale(0.100000,-0.100000)"
fill="#AA000" stroke="none">
<path d="M1245 1800 c-238 -38 -474 -190 -608 -393 -172 -258 -200 -597 -74
-871 95 -205 237 -350 438 -446 140 -66 220 -84 389 -83 171 0 254 19 395 86
283 137 475 413 505 725 28 301 -95 597 -330 789 -82 67 -241 147 -345 174
-93 23 -280 33 -370 19z m-419 -396 c71 -31 94 -50 94 -78 -1 -36 -205 -479
-229 -494 -27 -18 -79 -6 -139 31 -34 22 -42 33 -42 57 0 28 172 436 205 487
20 29 39 29 111 -3z m1242 4 c5 -7 56 -121 112 -252 116 -274 116 -271 27
-311 -90 -41 -101 -41 -130 -3 -23 31 -201 426 -213 472 -7 31 14 53 81 80 67
28 107 32 123 14z m-440 -84 c42 -14 103 -28 136 -31 l58 -6 30 -66 c17 -36
61 -141 98 -232 l68 -166 -52 -32 c-29 -17 -55 -31 -59 -31 -4 0 -69 55 -145
122 -75 67 -154 137 -175 155 -55 49 -90 46 -196 -21 -109 -69 -130 -74 -176
-46 -48 30 -69 63 -61 96 12 47 183 210 266 254 66 35 114 36 208 4z m-302 4
c3 -3 -45 -55 -105 -114 -99 -98 -111 -113 -111 -144 0 -50 29 -100 75 -132
70 -48 143 -34 255 51 30 22 60 41 67 41 7 0 83 -62 171 -137 87 -76 172 -150
190 -165 39 -33 40 -41 5 -68 -21 -17 -37 -21 -65 -17 -33 4 -38 2 -38 -15 0
-11 -14 -33 -30 -50 -28 -27 -36 -30 -75 -25 -38 4 -45 2 -45 -13 0 -10 -16
-32 -36 -50 -31 -27 -42 -31 -70 -25 -30 5 -34 3 -34 -15 0 -33 -44 -70 -82
-70 -64 0 -64 13 1 75 52 49 61 63 61 92 0 64 -46 113 -104 113 -17 0 -27 9
-36 30 -15 37 -56 60 -105 60 -23 0 -35 5 -35 14 0 29 -41 66 -81 72 -32 5
-42 13 -56 42 -37 77 -117 74 -198 -8 -49 -50 -68 -59 -80 -40 -4 6 38 112 92
235 l98 225 46 0 c26 0 75 9 110 19 35 11 73 22 84 25 24 6 123 2 131 -6z
m-339 -460 c13 -12 23 -31 23 -42 0 -25 -142 -156 -169 -156 -30 0 -72 40 -69
65 4 27 146 155 172 155 11 0 30 -10 43 -22z m121 -88 c51 -31 44 -57 -39
-134 -58 -54 -78 -66 -105 -66 -34 0 -64 28 -64 61 0 15 152 159 168 159 4 0
22 -9 40 -20z m142 -85 c31 -16 46 -46 33 -69 -4 -7 -38 -41 -76 -75 -72 -65
-104 -75 -139 -44 -37 33 -23 63 60 135 42 37 81 68 85 68 4 0 21 -7 37 -15z
m138 -95 c48 -29 43 -58 -20 -118 -86 -82 -104 -93 -133 -86 -28 7 -55 39 -55
64 0 14 156 160 170 160 3 0 20 -9 38 -20z"/>
</g>
</svg>
